<?xml version="1.0" encoding="UTF-8"?>
<svg xmlns="http://www.w3.org/2000/svg" version="1.1" viewBox="0 0 584.6 86.4">
  <defs>
    <style>
      .cls-1 {
        fill: #fff;
      }
    </style>
  </defs>
  <!-- Generator: Adobe Illustrator 28.7.5, SVG Export Plug-In . SVG Version: 1.2.0 Build 176)  -->
  <g>
    <g id="Layer_1">
      <g>
        <path class="cls-1" d="M2.7,52.8c0-4.3,3.7-7.7,7.9-7.7s4.9,1.3,6.8,2.7c2.3,1.8,5,3.3,11.8,3.3s10.6-1,10.6-4.1-5.1-3.2-11.4-3.9c-10-1.2-24.1-2.1-24.1-16.6S12.9,7.5,30.5,7.5s26.3,4.9,26.3,14-3.9,7.7-7.9,7.7-3.7-.6-5.7-2c-2.8-1.9-6.1-3.8-12.4-3.8s-8.5,1.2-8.5,3.5,4.9,3.6,11.5,4.1c10,.9,24.2,2,24.2,16s-10.7,20.2-27.9,20.2S2.7,61.3,2.7,52.8Z"/>
        <path class="cls-1" d="M63.5,54.1c0-7.9,6.6-11.9,17.2-11.9s11.9,2.7,13.3,5.9h.5v-5.7c0-3.4-2.9-5.8-8-5.8s-6.1.8-7.8,2.3c-1.7,1.4-3.4,2.8-6.5,2.8-4.7,0-7.4-3.6-7.4-7.7,0-9.4,11.6-13.2,22.7-13.2s23.4,5.3,23.4,18.5v10.8l1.1,7.2c1.1,7-3.4,10-7.5,10.1-5,.2-7.9-2.3-8.6-6.6l-.8-4.9h-.6c-1.1,7.7-6.6,11.5-15.7,11.5s-15.3-5.3-15.3-13.1ZM66.6,10.7c0-4.9,3.4-7.8,9.5-7.8s9.3,2.9,9.3,7.8-3.4,7.8-9.3,7.8-9.5-2.9-9.5-7.8ZM95,52.1c0-1.9-3.4-2.8-7.5-2.8s-7.2.8-7.2,2.8,3.2,2.8,7.3,2.8,7.5-1,7.5-2.8ZM91.2,10.7c0-4.9,3.4-7.8,9.4-7.8s9.4,2.9,9.4,7.8-3.4,7.8-9.4,7.8-9.4-2.9-9.4-7.8Z"/>
        <path class="cls-1" d="M120.7,58.9v-20.2l-1.3-9c-.8-4.4,2.5-8.9,8.5-8.9s7.6,2.2,8,7.1l.5,7.5h.6c1.6-12.4,9.4-14.8,16-14.8,9.4,0,15.2,5.8,15.2,15.1v23.3c0,5.5-4.7,8.3-8.7,8.3s-8.4-2.8-8.4-8.4v-16.8c0-3.2-1.8-5.1-5.5-5.1s-7.8,2.8-7.8,6.8v15.2c0,5.4-4.4,8.5-8.8,8.5s-8.3-2.8-8.3-8.4Z"/>
        <path class="cls-1" d="M221.8,53.4c5,6.7,0,13.7-6.3,13.7s-6.1-1.8-8.5-5.1l-10.2-13.7h-2.3v10.7c0,5.3-4.2,8.4-8.7,8.4s-8.3-2.8-8.3-8.4V15.8c0-5.7,4.6-8.4,8.5-8.4s8.5,2.8,8.5,8.4v23.9l12.3-14.7c2.2-2.7,4.9-4.3,7.6-4.3,6.5,0,11,6.5,5.4,13.2l-6.8,7.9,8.8,11.6Z"/>
        <path class="cls-1" d="M227.9,54.1c0-7.9,6.6-11.9,17.2-11.9s11.9,2.7,13.3,5.9h.5v-5.7c0-3.4-2.9-5.8-8-5.8s-6.1.8-7.8,2.3c-1.7,1.4-3.4,2.8-6.5,2.8-4.7,0-7.4-3.6-7.4-7.7,0-9.4,11.6-13.2,22.7-13.2s23.4,5.3,23.4,18.5v10.8l1.1,7.2c1.1,7-3.4,10-7.5,10.1-5,.2-7.9-2.3-8.6-6.6l-.8-4.9h-.6c-1.1,7.7-6.6,11.5-15.7,11.5s-15.3-5.3-15.3-13.1ZM259.3,52.1c0-1.9-3.4-2.8-7.5-2.8s-7.2.8-7.2,2.8,3.2,2.8,7.3,2.8,7.5-1,7.5-2.8Z"/>
        <path class="cls-1" d="M302.8,52.8c0-4.3,3.7-7.7,7.9-7.7s4.9,1.3,6.8,2.7c2.3,1.8,5,3.3,11.8,3.3s10.6-1,10.6-4.1-5.1-3.2-11.4-3.9c-10-1.2-24.1-2.1-24.1-16.6s8.7-18.9,26.3-18.9,26.3,4.9,26.3,14-3.9,7.7-7.9,7.7-3.7-.6-5.7-2c-2.8-1.9-6.1-3.8-12.4-3.8s-8.5,1.2-8.5,3.5,4.9,3.6,11.5,4.1c10,.9,24.2,2,24.2,16s-10.7,20.2-27.9,20.2-27.4-5.9-27.4-14.5Z"/>
        <path class="cls-1" d="M410.5,53.4c5,6.7,0,13.7-6.3,13.7s-6.1-1.8-8.5-5.1l-10.2-13.7h-2.3v10.7c0,5.3-4.2,8.4-8.7,8.4s-8.3-2.8-8.3-8.4V15.8c0-5.7,4.6-8.4,8.5-8.4s8.5,2.8,8.5,8.4v23.9l12.3-14.7c2.2-2.7,4.9-4.3,7.6-4.3,6.5,0,11,6.5,5.4,13.2l-6.8,7.9,8.8,11.6Z"/>
        <path class="cls-1" d="M464.2,54.6c0,8.8-11.9,12.7-22.4,12.7-16.6,0-26.3-9-26.3-23.3s11-23.4,25.6-23.4,24,7.4,24,18.5-2.8,6.9-8.4,6.9h-24.5c.7,3.4,4.6,5.6,10.3,5.6s7-1.2,9.8-2.5c1.8-.9,3.4-1.4,5.4-1.4,3.7,0,6.5,3,6.5,7ZM432.3,40l16.8-.3c-.2-2.8-3.3-5-8.1-5s-7.9,1.8-8.7,5.3Z"/>
        <path class="cls-1" d="M472.7,75.1v-36l-.9-8.5c-.8-6.7,3.4-9.6,7.6-9.7,3.8,0,8,1.1,8.5,7.7l.6,7.5h.8c1.3-12.1,8.8-15.5,16.9-15.5,10.3,0,17.6,7,17.6,23.1s-9.3,23.5-18.9,23.5-13.4-3.8-14.8-14.9h-1.1c.8,7.1.8,12.8.8,15.3v7.5c0,5.5-4.1,8.4-8.5,8.4s-8.5-2.8-8.5-8.4ZM507.2,43.8c0-4.9-3.6-6.4-8.6-6.4s-9,2.1-9,6.4,3,6.3,9.2,6.3,8.5-1.6,8.5-6.3Z"/>
        <path class="cls-1" d="M530.8,75.1v-36l-.9-8.5c-.8-6.7,3.4-9.6,7.6-9.7,3.8,0,8,1.1,8.5,7.7l.6,7.5h.8c1.3-12.1,8.8-15.5,16.9-15.5,10.3,0,17.6,7,17.6,23.1s-9.3,23.5-18.9,23.5-13.4-3.8-14.8-14.9h-1.1c.8,7.1.8,12.8.8,15.3v7.5c0,5.5-4.1,8.4-8.5,8.4s-8.5-2.8-8.5-8.4ZM565.3,43.8c0-4.9-3.6-6.4-8.6-6.4s-9,2.1-9,6.4,3,6.3,9.2,6.3,8.5-1.6,8.5-6.3Z"/>
      </g>
    </g>
  </g>
</svg>