<?xml version="1.0" encoding="UTF-8"?>
<svg xmlns="http://www.w3.org/2000/svg" version="1.1" viewBox="0 0 1080 1080">
  <defs>
    <style>
      .cls-1 {
        fill: #169386;
      }
    </style>
  </defs>
  <!-- Generator: Adobe Illustrator 28.7.5, SVG Export Plug-In . SVG Version: 1.2.0 Build 176)  -->
  <g>
    <g id="Layer_1">
      <g>
        <path class="cls-1" d="M772.7,490.9c-1-7.5-10.1-49.2-15.9-48.8-3.5.2-53.2,30.4-62,33.5,34.6,117-78,227.7-194.7,199.1l29.6-52.7-179.4,17,81.7,147.6,26.3-43.9c163.3,57.9,338.6-77.6,314.3-251.8Z"/>
        <path class="cls-1" d="M551,367.5c1.9.3,11.7,2.1,12.1,3.8l-29.1,51,178.3-17c-28.4-48.5-54.7-98.5-81.7-147.6-3.7,4.8-23.8,43.4-26.3,43.9-37.8-14.3-74.9-15.7-114.6-9.9-144.9,21.4-239.6,168.8-187.6,308.8l2.7,1.6,63.1-33.5c-36.7-111.2,71.7-220.5,183.2-201.3Z"/>
      </g>
    </g>
  </g>
</svg>